<svg width="106" height="16" viewBox="0 0 106 16" fill="none" xmlns="http://www.w3.org/2000/svg">
<path d="M2.34 10.8V8.68H8.26C8.96667 8.68 9.52667 8.49333 9.94 8.12C10.3533 7.73333 10.56 7.2 10.56 6.52C10.56 5.81333 10.3533 5.27333 9.94 4.9C9.52667 4.52667 8.96667 4.34 8.26 4.34H2.66V15H5.96046e-08V2.06H8.02C8.74 2.06 9.41333 2.14667 10.04 2.32C10.68 2.49333 11.2333 2.76 11.7 3.12C12.18 3.48 12.5533 3.94 12.82 4.5C13.0867 5.06 13.22 5.73333 13.22 6.52C13.22 7.29333 13.0867 7.95333 12.82 8.5C12.5533 9.04667 12.18 9.49333 11.7 9.84C11.2333 10.1733 10.68 10.42 10.04 10.58C9.41333 10.7267 8.74 10.8 8.02 10.8H2.34ZM19.8916 15.22C18.9049 15.22 18.0049 15.0067 17.1916 14.58C16.3916 14.14 15.7516 13.5333 15.2716 12.76C14.8049 11.9733 14.5716 11.0667 14.5716 10.04C14.5716 8.98667 14.8116 8.07333 15.2916 7.3C15.7716 6.52667 16.4182 5.92667 17.2316 5.5C18.0582 5.06 18.9916 4.84 20.0316 4.84C21.1782 4.84 22.0982 5.07333 22.7916 5.54C23.4982 5.99333 24.0116 6.61333 24.3316 7.4C24.6516 8.18667 24.8116 9.06667 24.8116 10.04C24.8116 10.6267 24.7182 11.2267 24.5316 11.84C24.3449 12.44 24.0582 13 23.6716 13.52C23.2849 14.0267 22.7782 14.44 22.1516 14.76C21.5249 15.0667 20.7716 15.22 19.8916 15.22ZM20.7316 13.22C21.5182 13.22 22.1982 13.0867 22.7716 12.82C23.3449 12.5533 23.7849 12.18 24.0916 11.7C24.3982 11.22 24.5516 10.6667 24.5516 10.04C24.5516 9.36 24.3916 8.78667 24.0716 8.32C23.7649 7.84 23.3249 7.48 22.7516 7.24C22.1916 6.98667 21.5182 6.86 20.7316 6.86C19.6249 6.86 18.7649 7.15333 18.1516 7.74C17.5382 8.31333 17.2316 9.08 17.2316 10.04C17.2316 10.68 17.3782 11.24 17.6716 11.72C17.9649 12.1867 18.3716 12.5533 18.8916 12.82C19.4249 13.0867 20.0382 13.22 20.7316 13.22ZM24.5516 5.06H27.1516V15H24.7316C24.7316 15 24.7116 14.8733 24.6716 14.62C24.6449 14.3533 24.6182 14.02 24.5916 13.62C24.5649 13.22 24.5516 12.8267 24.5516 12.44V5.06ZM28.8047 5.06H36.5247V7.08H28.8047V5.06ZM31.3647 2.34H33.9647V15H31.3647V2.34ZM41.1566 0.699999V2.98H38.1366V0.699999H41.1566ZM38.3366 5.06H40.9366V15H38.3366V5.06ZM43.5281 5.06H46.1281V15H43.5281V5.06ZM50.7481 4.84C51.3615 4.84 51.9281 4.92 52.4481 5.08C52.9681 5.24 53.4215 5.48667 53.8081 5.82C54.1948 6.15333 54.4948 6.58 54.7081 7.1C54.9215 7.60667 55.0281 8.21333 55.0281 8.92V15H52.4281V9.38C52.4281 8.54 52.2215 7.92667 51.8081 7.54C51.4081 7.14 50.7481 6.94 49.8281 6.94C49.1348 6.94 48.5081 7.07333 47.9481 7.34C47.3881 7.60667 46.9348 7.94667 46.5881 8.36C46.2415 8.76 46.0415 9.18 45.9881 9.62L45.9681 8.6C46.0348 8.13333 46.1881 7.68 46.4281 7.24C46.6681 6.8 46.9881 6.4 47.3881 6.04C47.8015 5.66667 48.2881 5.37333 48.8481 5.16C49.4081 4.94667 50.0415 4.84 50.7481 4.84ZM56.9953 11.7H59.3953C59.542 12.1533 59.842 12.5267 60.2953 12.82C60.762 13.1 61.3686 13.24 62.1153 13.24C62.622 13.24 63.0153 13.1933 63.2953 13.1C63.5753 13.0067 63.7686 12.8733 63.8753 12.7C63.982 12.5133 64.0353 12.3067 64.0353 12.08C64.0353 11.8 63.9486 11.5867 63.7753 11.44C63.602 11.28 63.3353 11.1533 62.9753 11.06C62.6153 10.9667 62.1553 10.88 61.5953 10.8C61.0353 10.7067 60.4953 10.5933 59.9753 10.46C59.4553 10.3267 58.9953 10.1533 58.5953 9.94C58.1953 9.71333 57.8753 9.43333 57.6353 9.1C57.4086 8.75333 57.2953 8.33333 57.2953 7.84C57.2953 7.36 57.4086 6.93333 57.6353 6.56C57.8753 6.18667 58.202 5.87333 58.6153 5.62C59.042 5.36667 59.5353 5.17333 60.0953 5.04C60.6686 4.90667 61.282 4.84 61.9353 4.84C62.922 4.84 63.742 4.98667 64.3953 5.28C65.0486 5.56 65.5353 5.96 65.8553 6.48C66.1886 6.98667 66.3553 7.57333 66.3553 8.24H64.0553C63.9486 7.74667 63.7353 7.39333 63.4153 7.18C63.0953 6.95333 62.602 6.84 61.9353 6.84C61.282 6.84 60.7886 6.94 60.4553 7.14C60.122 7.34 59.9553 7.61333 59.9553 7.96C59.9553 8.24 60.0553 8.46 60.2553 8.62C60.4686 8.76667 60.7753 8.88667 61.1753 8.98C61.5886 9.07333 62.102 9.17333 62.7153 9.28C63.2353 9.38667 63.7286 9.50667 64.1953 9.64C64.6753 9.77333 65.102 9.94667 65.4753 10.16C65.8486 10.36 66.142 10.6333 66.3553 10.98C66.582 11.3133 66.6953 11.74 66.6953 12.26C66.6953 12.9 66.5086 13.44 66.1353 13.88C65.7753 14.32 65.2553 14.66 64.5753 14.9C63.8953 15.1267 63.082 15.24 62.1353 15.24C61.2953 15.24 60.5686 15.1533 59.9553 14.98C59.3553 14.7933 58.8553 14.56 58.4553 14.28C58.0553 13.9867 57.742 13.68 57.5153 13.36C57.302 13.0267 57.1553 12.7133 57.0753 12.42C56.9953 12.1267 56.9686 11.8867 56.9953 11.7Z" fill="black"/>
<path d="M98.5621 2.5345C98.8843 1.66389 100.116 1.66389 100.438 2.53451L101.501 5.40803C101.602 5.68175 101.818 5.89756 102.092 5.99885L104.965 7.06215C105.836 7.38431 105.836 8.61569 104.965 8.93785L102.092 10.0012C101.818 10.1024 101.602 10.3182 101.501 10.592L100.438 13.4655C100.116 14.3361 98.8843 14.3361 98.5621 13.4655L97.4988 10.592C97.3976 10.3182 97.1818 10.1024 96.908 10.0012L94.0345 8.93785C93.1639 8.61569 93.1639 7.38431 94.0345 7.06215L96.908 5.99885C97.1818 5.89756 97.3976 5.68175 97.4988 5.40803L98.5621 2.5345Z" fill="black"/>
</svg>
